<svg xmlns="http://www.w3.org/2000/svg" viewBox="332.23 179.60 350.36 183.78">
<path fill="#E9E4D6" fill-rule="nonzero" d="M 371.246094 298.925781 C 370.117188 306.6875 370.535156 320.8125 372.5 324.109375 C 373.804688 326.289062 375.457031 326.613281 376.332031 326.613281 C 377.769531 326.613281 379.117188 325.738281 379.519531 324.539062 C 379.859375 323.53125 379.46875 322.519531 378.472656 321.785156 C 375.402344 319.496094 373.589844 306.40625 374.515625 298.65625 C 374.730469 296.933594 375.027344 295.105469 375.378906 293.234375 C 385.117188 286.816406 395.558594 281.433594 404.800781 278.085938 C 419.894531 283.332031 426.917969 290.53125 426.246094 300.070312 C 425.222656 312.753906 410.25 326.828125 396.582031 335.761719 C 382.128906 345.054688 366.605469 350.832031 356.03125 350.832031 C 352.15625 350.832031 349.050781 350.0625 346.804688 348.554688 C 343.734375 346.539062 342.015625 343.175781 341.796875 338.800781 C 341.351562 329.910156 347.382812 315.132812 365.609375 300.351562 L 366.457031 299.679688 C 368.03125 298.46875 369.769531 297.09375 371.722656 295.722656 Z M 436.605469 271.640625 C 434.15625 271.140625 431.441406 270.898438 428.558594 270.898438 C 423.445312 270.898438 417.71875 271.652344 410.988281 273.214844 L 409.242188 273.632812 C 407.355469 272.972656 405.421875 272.515625 403.535156 272.085938 C 414.015625 267.617188 424.523438 256.421875 428.316406 245.488281 C 430.496094 239.230469 430.296875 233.6875 427.753906 229.476562 C 424.835938 224.589844 420.636719 221.566406 414.917969 220.234375 C 413.34375 219.871094 411.6875 219.683594 409.992188 219.683594 C 397.429688 219.683594 384.339844 229.558594 376.953125 238.019531 C 373.019531 242.582031 368.988281 247.585938 366.550781 254.082031 C 365.730469 256.140625 366.132812 257.433594 366.617188 258.160156 C 367.171875 258.96875 368.101562 259.4375 369.105469 259.4375 C 369.902344 259.4375 370.65625 259.128906 371.171875 258.589844 C 371.691406 258.039062 371.949219 257.257812 371.90625 256.382812 C 371.691406 251.417969 374.019531 245.875 378.632812 240.332031 C 385.050781 231.898438 396.878906 225.789062 406.765625 225.789062 C 407.921875 225.789062 409.054688 225.875 410.128906 226.03125 C 421.589844 227.785156 423.757812 234.617188 423.554688 240.0625 C 423.097656 252.226562 409.335938 269.554688 395.960938 270.589844 C 393.621094 270.214844 391.5625 269.984375 389.527344 269.769531 L 389.234375 269.769531 C 389.15625 269.769531 389.074219 269.796875 389.007812 269.839844 C 388.875 269.839844 388.726562 269.863281 388.589844 269.960938 C 388.320312 270.066406 388.050781 270.253906 387.757812 270.550781 C 387.699219 270.605469 387.675781 270.65625 387.660156 270.714844 C 387.644531 270.753906 387.621094 270.792969 387.582031 270.847656 C 387.527344 270.941406 387.433594 271.089844 387.402344 271.292969 C 387.324219 271.585938 387.335938 271.882812 387.445312 272.21875 L 387.605469 272.515625 C 387.621094 272.554688 387.644531 272.597656 387.675781 272.625 L 387.769531 272.714844 C 387.917969 273.011719 388.25 273.269531 388.734375 273.441406 C 388.898438 273.5625 389.074219 273.5625 389.128906 273.550781 C 389.8125 273.726562 390.515625 273.898438 391.238281 274.078125 C 393.945312 274.761719 396.972656 275.515625 400.117188 276.484375 C 391.816406 279.617188 383.894531 283.480469 376.550781 288 C 381.269531 269.960938 391.722656 251.851562 402.742188 242.714844 C 406.386719 239.703125 408.042969 236.445312 407.167969 234.027344 C 406.671875 232.613281 405.324219 231.738281 403.695312 231.738281 C 402.269531 231.738281 400.738281 232.382812 399.378906 233.5625 C 385.574219 245.554688 376.519531 270.808594 372.632812 290.503906 C 369.296875 292.683594 366.203125 294.941406 363.621094 296.867188 C 348.296875 308.503906 338.890625 323.597656 338.445312 337.253906 C 338.230469 343.941406 340.386719 349.59375 344.515625 353.171875 C 347.785156 355.96875 352.386719 357.378906 358.183594 357.378906 C 369.835938 357.378906 384.660156 351.648438 398.8125 341.667969 C 413.195312 331.695312 429.03125 315.394531 430.351562 299.53125 C 431.171875 288.726562 425.613281 280.628906 413.84375 275.460938 C 422.613281 273.671875 429.878906 274.386719 435.410156 277.53125 C 435.988281 277.9375 436.59375 278.140625 437.210938 278.140625 C 438.71875 278.140625 440.0625 276.875 440.210938 275.300781 C 440.359375 273.898438 439.484375 272.207031 436.605469 271.640625 "/>
<path fill="#E9E4D6" fill-rule="nonzero" d="M 467.496094 246.1875 C 474.304688 235.410156 477.597656 235.261719 471.382812 247.464844 C 467.050781 256.140625 460.539062 266.246094 454.914062 274.332031 C 458.441406 264.226562 462.707031 253.894531 467.496094 246.1875 M 562.0625 273.347656 C 562.960938 275.730469 558.695312 280.386719 554.984375 279.710938 C 559.398438 272.449219 561.484375 271.910156 562.0625 273.347656 M 593.582031 285.011719 C 591.28125 287.800781 565.828125 306.984375 554.59375 301.523438 C 547.273438 298.144531 550.410156 288.375 553.128906 282.902344 C 561.617188 283.628906 570.253906 279.765625 569.753906 274.871094 C 569.597656 272.703125 568.007812 270.753906 564.683594 269.824219 C 557.660156 267.953125 550.597656 273.953125 546.886719 278.730469 C 545.78125 280.144531 544.746094 281.660156 543.859375 283.265625 C 536.742188 290.867188 522.949219 303.699219 514.488281 302.542969 C 510.144531 301.289062 510.386719 294.929688 515.675781 285.375 C 517.851562 281.179688 512.710938 277.441406 508.234375 280.761719 C 506.660156 282.1875 498.683594 294.78125 493.027344 298.992188 C 490.878906 300.742188 487.933594 301.726562 488.886719 297.742188 C 490.21875 291.996094 497.96875 278.257812 499.394531 274.117188 C 501.210938 268.035156 495.855469 264.941406 491.847656 269.796875 C 489.34375 273.023438 484.59375 281.21875 482.496094 289.25 C 482.28125 290.046875 482.078125 290.90625 481.933594 291.820312 C 480.871094 293.582031 479.816406 295.398438 478.71875 297.230469 C 469.445312 312.796875 454.621094 332.332031 447.058594 330.230469 C 435.835938 327.3125 448.335938 291.164062 451.929688 283.75 C 461.804688 270.886719 477.371094 249.550781 479.765625 236.378906 C 481.566406 226.652344 474.234375 226.273438 469.285156 231.226562 C 460.390625 240.425781 449.613281 267.820312 442.941406 292.816406 C 438.464844 309.054688 434.410156 330.609375 446.386719 332.101562 C 455.222656 333.066406 470.859375 316.238281 480.222656 300.527344 C 480.773438 299.613281 481.324219 298.710938 481.878906 297.808594 C 482.308594 299.894531 483.386719 301.761719 485.523438 302.90625 C 492.894531 307.035156 500.066406 298.789062 506.054688 291.984375 C 502.503906 298.832031 503.941406 305.273438 512.324219 306.175781 C 522.332031 307.265625 532.597656 299.730469 540.65625 291.984375 C 539.726562 297.875 541.761719 303.308594 549.320312 305.558594 C 564.75 309.730469 587.140625 297.039062 596.257812 287.40625 C 600.40625 283.410156 596.570312 281.621094 593.582031 285.011719 "/>
<path fill="#E9E4D6" fill-rule="nonzero" d="M 511.648438 329.421875 L 511.648438 326.941406 C 511.648438 326.527344 511.625 325.925781 511.570312 325.132812 C 511.523438 324.339844 511.445312 323.695312 511.339844 323.195312 C 511.238281 322.695312 511.082031 322.136719 510.875 321.515625 C 510.667969 320.890625 510.417969 320.402344 510.128906 320.042969 C 509.835938 319.679688 509.460938 319.367188 509.015625 319.113281 C 508.566406 318.855469 508.050781 318.726562 507.464844 318.726562 C 506.125 318.726562 504.820312 319.324219 503.558594 320.53125 C 502.304688 321.738281 501.203125 323.417969 500.253906 325.570312 C 499.308594 327.726562 498.4375 329.984375 497.644531 332.34375 C 496.851562 334.703125 496.152344 337.3125 495.550781 340.171875 C 494.949219 343.035156 494.464844 345.488281 494.105469 347.539062 C 493.742188 349.589844 493.40625 351.628906 493.097656 353.664062 C 493.507812 354.523438 494.285156 355.351562 495.421875 356.144531 L 483.792969 356.144531 C 484.894531 355.386719 485.644531 354.640625 486.042969 353.921875 C 486.4375 353.195312 486.636719 352.265625 486.636719 351.128906 L 486.636719 322.496094 C 486.636719 321.328125 486.4375 320.359375 486.042969 319.605469 C 485.644531 318.84375 484.894531 318.101562 483.792969 317.378906 L 492.628906 317.378906 L 492.628906 350.558594 C 492.664062 350.320312 492.734375 349.925781 492.839844 349.375 C 493.046875 348.066406 493.222656 346.996094 493.378906 346.167969 C 493.535156 345.339844 493.773438 344.066406 494.105469 342.34375 C 494.433594 340.621094 494.75 339.164062 495.0625 337.976562 C 495.371094 336.789062 495.757812 335.316406 496.222656 333.558594 C 496.6875 331.800781 497.175781 330.308594 497.695312 329.085938 C 498.214844 327.863281 498.789062 326.527344 499.429688 325.082031 C 500.066406 323.632812 500.753906 322.445312 501.496094 321.515625 C 502.234375 320.585938 503.035156 319.722656 503.898438 318.929688 C 504.757812 318.136719 505.695312 317.597656 506.714844 317.304688 C 507.730469 317.011719 508.792969 316.949219 509.894531 317.117188 C 511.445312 317.363281 512.753906 317.84375 513.820312 318.570312 C 514.890625 319.292969 515.679688 320.214844 516.199219 321.332031 C 516.714844 322.453125 517.078125 323.589844 517.28125 324.746094 C 517.488281 325.902344 517.59375 327.199219 517.59375 328.648438 L 517.59375 350.558594 C 517.804688 349.21875 517.980469 348.089844 518.140625 347.179688 C 518.292969 346.261719 518.550781 344.84375 518.914062 342.914062 C 519.273438 340.984375 519.636719 339.292969 519.996094 337.847656 C 520.359375 336.398438 520.835938 334.6875 521.421875 332.703125 C 522.003906 330.722656 522.597656 329.015625 523.207031 327.589844 C 523.804688 326.160156 524.539062 324.695312 525.398438 323.195312 C 526.257812 321.695312 527.148438 320.507812 528.058594 319.628906 C 528.972656 318.75 530.023438 318.058594 531.210938 317.558594 C 532.402344 317.058594 533.632812 316.914062 534.910156 317.117188 C 536.460938 317.363281 537.769531 317.84375 538.835938 318.570312 C 539.90625 319.292969 540.699219 320.214844 541.21875 321.332031 C 541.730469 322.453125 542.09375 323.589844 542.300781 324.746094 C 542.507812 325.902344 542.609375 327.199219 542.609375 328.648438 L 542.609375 351.027344 C 542.609375 352.199219 542.808594 353.152344 543.207031 353.894531 C 543.601562 354.636719 544.347656 355.386719 545.457031 356.144531 L 533.824219 356.144531 C 534.375 355.765625 534.824219 355.394531 535.167969 355.03125 C 535.511719 354.667969 535.796875 354.289062 536.019531 353.894531 C 536.242188 353.5 536.398438 353.085938 536.484375 352.652344 C 536.574219 352.226562 536.613281 351.714844 536.613281 351.128906 L 536.613281 328.699219 C 536.648438 327.9375 536.660156 327.355469 536.640625 326.941406 C 536.625 326.527344 536.589844 325.925781 536.539062 325.132812 C 536.484375 324.339844 536.417969 323.695312 536.332031 323.195312 C 536.242188 322.695312 536.097656 322.136719 535.890625 321.515625 C 535.683594 320.890625 535.433594 320.402344 535.140625 320.042969 C 534.851562 319.679688 534.46875 319.367188 534.003906 319.113281 C 533.542969 318.855469 533.015625 318.726562 532.429688 318.726562 C 531.121094 318.726562 529.84375 319.324219 528.601562 320.53125 C 527.363281 321.738281 526.257812 323.375 525.296875 325.445312 C 524.332031 327.507812 523.453125 329.757812 522.664062 332.1875 C 521.867188 334.617188 521.171875 337.21875 520.566406 339.992188 C 519.964844 342.765625 519.46875 345.257812 519.089844 347.460938 C 518.714844 349.664062 518.402344 351.785156 518.164062 353.816406 C 518.578125 354.609375 519.335938 355.386719 520.4375 356.144531 L 508.808594 356.144531 C 509.53125 355.625 510.101562 355.128906 510.515625 354.640625 C 510.925781 354.164062 511.21875 353.648438 511.390625 353.09375 C 511.5625 352.542969 511.648438 351.886719 511.648438 351.128906 Z M 511.648438 329.421875 "/>
<path fill="#E9E4D6" fill-rule="nonzero" d="M 565.527344 318.671875 C 561.496094 319.671875 558.808594 322.53125 557.464844 327.25 C 556.1875 331.695312 556.363281 336.570312 557.980469 341.878906 C 559.5 347.011719 561.859375 350.75 565.0625 353.09375 C 567.820312 355.128906 570.765625 355.65625 573.902344 354.695312 C 575.550781 354.179688 576.996094 353.308594 578.214844 352.085938 C 579.4375 350.863281 580.34375 349.433594 580.929688 347.796875 C 581.515625 346.160156 581.921875 344.367188 582.144531 342.421875 C 582.367188 340.472656 582.316406 338.492188 581.988281 336.476562 C 581.660156 334.457031 581.195312 332.488281 580.589844 330.558594 C 579.992188 328.632812 579.164062 326.863281 578.113281 325.261719 C 577.0625 323.660156 575.914062 322.289062 574.675781 321.152344 C 573.433594 320.015625 572.023438 319.214844 570.4375 318.75 C 568.851562 318.285156 567.214844 318.257812 565.527344 318.671875 M 573.953125 355.570312 C 567.714844 357.15625 562.355469 356.074219 557.878906 352.320312 C 554.363281 349.355469 552.125 345.394531 551.160156 340.429688 C 550.160156 335.230469 550.882812 330.527344 553.328125 326.320312 C 555.878906 321.945312 559.894531 319.136719 565.375 317.894531 C 567.957031 317.34375 570.429688 317.222656 572.789062 317.535156 C 575.148438 317.84375 577.191406 318.578125 578.914062 319.730469 C 580.636719 320.886719 582.195312 322.273438 583.59375 323.890625 C 584.988281 325.511719 586.019531 327.335938 586.691406 329.371094 C 587.363281 331.402344 587.832031 333.472656 588.089844 335.574219 C 588.34375 337.675781 588.199219 339.785156 587.648438 341.902344 C 587.097656 344.023438 586.296875 345.972656 585.246094 347.746094 C 584.191406 349.519531 582.695312 351.101562 580.75 352.5 C 578.800781 353.894531 576.535156 354.921875 573.953125 355.570312 "/>
<path fill="#E9E4D6" fill-rule="nonzero" d="M 608.960938 318.671875 C 604.925781 319.671875 602.238281 322.53125 600.894531 327.25 C 599.621094 331.695312 599.792969 336.570312 601.414062 341.878906 C 602.925781 347.011719 605.289062 350.75 608.496094 353.09375 C 611.25 355.128906 614.195312 355.65625 617.328125 354.695312 C 618.984375 354.179688 620.425781 353.308594 621.648438 352.085938 C 622.867188 350.863281 623.773438 349.433594 624.359375 347.796875 C 624.945312 346.160156 625.351562 344.367188 625.574219 342.421875 C 625.796875 340.472656 625.746094 338.492188 625.421875 336.476562 C 625.09375 334.457031 624.628906 332.488281 624.027344 330.558594 C 623.421875 328.632812 622.59375 326.863281 621.542969 325.261719 C 620.492188 323.660156 619.347656 322.289062 618.105469 321.152344 C 616.867188 320.015625 615.453125 319.214844 613.867188 318.75 C 612.28125 318.285156 610.644531 318.257812 608.960938 318.671875 M 617.382812 355.570312 C 611.144531 357.15625 605.785156 356.074219 601.308594 352.320312 C 597.792969 349.355469 595.554688 345.394531 594.589844 340.429688 C 593.589844 335.230469 594.316406 330.527344 596.761719 326.320312 C 599.3125 321.945312 603.324219 319.136719 608.800781 317.894531 C 611.386719 317.34375 613.855469 317.222656 616.21875 317.535156 C 618.578125 317.84375 620.621094 318.578125 622.34375 319.730469 C 624.066406 320.886719 625.625 322.273438 627.023438 323.890625 C 628.417969 325.511719 629.453125 327.335938 630.121094 329.371094 C 630.796875 331.402344 631.261719 333.472656 631.519531 335.574219 C 631.777344 337.675781 631.628906 339.785156 631.078125 341.902344 C 630.527344 344.023438 629.730469 345.972656 628.675781 347.746094 C 627.625 349.519531 626.125 351.101562 624.179688 352.5 C 622.230469 353.894531 619.96875 354.921875 617.382812 355.570312 "/>
<path fill="#E9E4D6" fill-rule="nonzero" d="M 667.753906 329.421875 L 667.753906 326.941406 C 667.753906 326.527344 667.730469 325.925781 667.679688 325.132812 C 667.625 324.339844 667.558594 323.695312 667.472656 323.195312 C 667.382812 322.695312 667.234375 322.136719 667.03125 321.515625 C 666.824219 320.890625 666.574219 320.402344 666.28125 320.042969 C 665.988281 319.679688 665.609375 319.367188 665.144531 319.113281 C 664.679688 318.855469 664.15625 318.726562 663.570312 318.726562 C 661.640625 318.726562 659.414062 320.359375 656.898438 323.632812 C 655.558594 325.425781 654.265625 327.710938 653.027344 330.484375 C 651.78125 333.257812 650.734375 336.140625 649.871094 339.140625 C 649.007812 342.136719 648.320312 344.773438 647.804688 347.046875 C 647.289062 349.320312 646.839844 351.476562 646.460938 353.511719 C 646.839844 354.402344 647.632812 355.28125 648.839844 356.144531 L 637.210938 356.144531 C 638.3125 355.386719 639.058594 354.640625 639.457031 353.921875 C 639.851562 353.195312 640.054688 352.265625 640.054688 351.128906 L 640.054688 322.496094 C 640.054688 321.328125 639.851562 320.359375 639.457031 319.605469 C 639.058594 318.84375 638.3125 318.101562 637.210938 317.378906 L 646.046875 317.378906 L 646.046875 350.558594 C 648.699219 337.089844 652.195312 327.664062 656.539062 322.289062 C 658.125 320.324219 659.734375 318.921875 661.371094 318.078125 C 663.007812 317.234375 664.566406 316.914062 666.050781 317.117188 C 667.601562 317.363281 668.902344 317.84375 669.953125 318.570312 C 671.003906 319.292969 671.792969 320.214844 672.328125 321.332031 C 672.867188 322.453125 673.230469 323.589844 673.441406 324.746094 C 673.648438 325.902344 673.75 327.199219 673.75 328.648438 L 673.75 351.027344 C 673.75 352.199219 673.949219 353.152344 674.347656 353.894531 C 674.738281 354.636719 675.492188 355.386719 676.59375 356.144531 L 664.964844 356.144531 C 666.03125 355.386719 666.765625 354.640625 667.160156 353.921875 C 667.558594 353.195312 667.753906 352.265625 667.753906 351.128906 Z M 667.753906 329.421875 "/>
<path fill="#E9E4D6" fill-rule="nonzero" d="M 660.066406 193.367188 C 663.925781 193.367188 667.863281 197.488281 667.863281 201.132812 C 667.863281 197.550781 671.773438 193.367188 675.589844 193.367188 C 671.773438 193.367188 667.828125 189.25 667.863281 185.769531 C 667.828125 189.25 663.925781 193.367188 660.066406 193.367188 "/>
<path fill="#E9E4D6" fill-rule="nonzero" d="M 675.515625 231.855469 C 675.492188 231.914062 675.464844 231.984375 675.441406 232.042969 C 675.441406 232.042969 675.242188 232.527344 674.878906 233.375 C 674.511719 234.230469 673.914062 235.410156 673.152344 236.804688 C 672.273438 238.414062 671.046875 240.140625 670.46875 240.941406 C 669.359375 242.492188 667.878906 244.355469 666.246094 246.167969 C 664.671875 247.921875 661.722656 250.671875 657.609375 252.964844 C 656.496094 253.578125 653.773438 254.609375 652.882812 254.957031 C 636.757812 261.261719 613.339844 257.378906 604.46875 236.988281 C 599.171875 224.816406 600.972656 206.386719 613.847656 194.800781 C 614.234375 194.453125 616.984375 191.941406 619.789062 190.246094 C 620.636719 189.730469 622.632812 188.519531 624.300781 187.761719 C 625.753906 187.113281 626.980469 186.617188 627.855469 186.320312 C 628.730469 186.027344 629.226562 185.875 629.226562 185.875 C 629.285156 185.851562 629.355469 185.828125 629.417969 185.8125 C 630.386719 185.601562 631.328125 186.214844 631.542969 187.171875 C 631.730469 188.140625 631.203125 188.972656 630.085938 189.105469 C 629.664062 189.15625 629.066406 189.179688 628.203125 189.289062 C 626.746094 189.46875 626.316406 189.449219 624.859375 189.75 C 623.128906 190.109375 622.21875 190.5 621.234375 190.984375 C 620.210938 191.488281 618.832031 192.335938 617.59375 193.425781 C 616.277344 194.589844 615.003906 195.882812 613.675781 197.753906 C 596.660156 221.703125 615.054688 259.410156 652.109375 252.789062 C 653.789062 252.488281 655.886719 251.621094 656.828125 251.207031 C 661.226562 249.253906 664.136719 246.1875 665.214844 244.988281 C 666.410156 243.652344 667.605469 241.914062 668.53125 240.242188 C 668.980469 239.433594 670.292969 236.285156 670.554688 235.585938 C 671.085938 234.195312 671.4375 233.011719 671.699219 232.195312 C 671.945312 231.359375 672.089844 230.882812 672.089844 230.882812 L 672.101562 230.835938 C 672.386719 229.890625 673.378906 229.363281 674.320312 229.632812 C 675.265625 229.925781 675.800781 230.90625 675.515625 231.855469 "/>
</svg>