<svg xmlns="http://www.w3.org/2000/svg" viewBox="118.17 240.43 159.58 204.89">
<path fill="#9FAF9F" fill-rule="nonzero" d="M 267.839844 323.523438 L 263.839844 323.523438 L 263.839844 287.851562 C 263.839844 262.140625 239.601562 250.429688 217.078125 250.429688 C 195.734375 250.429688 172.058594 260.402344 170.015625 282.273438 C 169.714844 282.453125 165.945312 284.699219 165.945312 284.699219 C 165.945312 284.699219 165.9375 283.144531 165.96875 282.6875 C 167.753906 257.777344 193.714844 246.429688 217.078125 246.429688 C 241.527344 246.429688 267.839844 259.390625 267.839844 287.851562 Z M 267.839844 323.523438 "/>
<path fill="#9FAF9F" fill-rule="nonzero" d="M 218 439.324219 C 185.882812 439.324219 167.054688 427.0625 166.023438 403.71875 C 165.980469 402.703125 165.992188 400.960938 165.992188 400.960938 L 169.957031 398.738281 C 169.957031 399.226562 169.964844 399.550781 169.957031 400.230469 C 169.949219 400.78125 169.976562 402.496094 170.050781 403.398438 C 171.765625 424.582031 187.894531 435.324219 218 435.324219 C 240.015625 435.324219 263.773438 424.082031 263.773438 405.917969 L 267.816406 405.917969 C 267.816406 415.820312 261.878906 424.703125 251.097656 430.929688 C 241.855469 436.261719 229.792969 439.324219 218 439.324219 "/>
<path fill="#9FAF9F" fill-rule="nonzero" d="M 198.890625 352.71875 C 198.03125 363.492188 185.3125 375.441406 173.710938 383.019531 C 161.441406 390.917969 148.257812 395.820312 139.28125 395.820312 C 136 395.820312 133.347656 395.160156 131.453125 393.878906 C 128.839844 392.167969 127.378906 389.320312 127.203125 385.601562 C 126.820312 378.050781 131.941406 365.507812 147.417969 352.960938 L 148.128906 352.390625 C 149.46875 351.359375 150.941406 350.191406 152.597656 349.03125 L 152.203125 351.75 C 151.242188 358.339844 151.597656 370.328125 153.257812 373.128906 C 154.371094 374.980469 155.78125 375.25 156.519531 375.25 C 157.742188 375.25 158.878906 374.507812 159.230469 373.5 C 159.507812 372.640625 159.179688 371.78125 158.328125 371.160156 C 155.730469 369.210938 154.191406 358.101562 154.96875 351.519531 C 155.160156 350.058594 155.410156 348.507812 155.710938 346.917969 C 163.980469 341.46875 172.839844 336.902344 180.691406 334.058594 C 193.5 338.507812 199.46875 344.621094 198.890625 352.71875 M 268.660156 396.640625 C 268.109375 395.621094 267.839844 394.300781 267.839844 392.691406 L 267.839844 336.808594 C 267.839844 335.71875 267.960938 334.789062 268.203125 334 C 268.339844 333.53125 268.539062 333.078125 268.8125 332.652344 C 268.96875 332.359375 269.167969 332.078125 269.402344 331.800781 C 269.96875 331.121094 270.75 330.417969 271.75 329.699219 L 259.660156 329.699219 L 235.929688 387.859375 L 215.75 337.101562 C 215.320312 336.058594 213.964844 333.324219 213.539062 332.730469 C 212.246094 330.914062 211.570312 329.324219 207.578125 328.085938 C 205.742188 327.515625 203.710938 327.390625 201.121094 327.417969 C 196.78125 327.46875 191.652344 328.589844 185.941406 329.917969 L 184.460938 330.28125 C 182.859375 329.71875 181.210938 329.328125 179.609375 328.960938 C 188.507812 325.167969 197.429688 315.667969 200.652344 306.378906 C 202.5 301.070312 202.328125 296.359375 200.167969 292.789062 C 197.703125 288.640625 194.128906 286.070312 189.28125 284.941406 C 187.941406 284.628906 186.539062 284.46875 185.097656 284.46875 C 174.429688 284.46875 163.320312 292.859375 157.039062 300.039062 C 153.710938 303.910156 150.28125 308.160156 148.210938 313.679688 C 147.519531 315.429688 147.859375 316.519531 148.269531 317.140625 C 148.742188 317.828125 149.53125 318.230469 150.390625 318.230469 C 151.0625 318.230469 151.703125 317.960938 152.140625 317.5 C 152.578125 317.039062 152.789062 316.378906 152.757812 315.628906 C 152.578125 311.417969 154.550781 306.710938 158.46875 302.007812 C 163.917969 294.851562 173.960938 289.660156 182.359375 289.660156 C 183.339844 289.660156 184.300781 289.730469 185.210938 289.871094 C 194.941406 291.351562 196.78125 297.152344 196.609375 301.78125 C 196.21875 312.101562 184.539062 326.820312 173.179688 327.691406 C 171.203125 327.371094 169.453125 327.179688 167.71875 327 L 167.46875 327 C 167.402344 327 167.328125 327.019531 167.28125 327.050781 C 167.160156 327.050781 167.039062 327.070312 166.917969 327.160156 C 166.703125 327.25 166.46875 327.410156 166.21875 327.660156 C 166.167969 327.710938 166.152344 327.75 166.140625 327.800781 C 166.121094 327.828125 166.097656 327.871094 166.070312 327.910156 C 166.019531 327.992188 165.941406 328.121094 165.917969 328.289062 C 165.847656 328.539062 165.859375 328.789062 165.953125 329.078125 L 166.089844 329.328125 C 166.097656 329.359375 166.121094 329.402344 166.152344 329.417969 L 166.21875 329.5 C 166.347656 329.75 166.640625 329.96875 167.050781 330.121094 C 167.191406 330.21875 167.328125 330.21875 167.378906 330.210938 C 167.960938 330.359375 168.5625 330.5 169.167969 330.652344 C 171.46875 331.230469 174.039062 331.878906 176.710938 332.699219 C 169.667969 335.359375 162.941406 338.640625 156.703125 342.46875 C 160.710938 327.160156 169.578125 311.78125 178.941406 304.03125 C 182.03125 301.46875 183.441406 298.699219 182.703125 296.652344 C 182.28125 295.449219 181.128906 294.710938 179.75 294.710938 C 178.539062 294.710938 177.242188 295.25 176.078125 296.257812 C 164.359375 306.441406 156.679688 327.878906 153.378906 344.601562 C 150.539062 346.449219 147.917969 348.371094 145.71875 350 C 132.710938 359.878906 124.730469 372.691406 124.359375 384.289062 C 124.167969 389.96875 126 394.757812 129.5 397.800781 C 132.28125 400.179688 136.191406 401.378906 141.109375 401.378906 C 151 401.378906 163.589844 396.507812 175.609375 388.039062 C 187.8125 379.570312 201.257812 365.730469 202.378906 352.257812 C 203.078125 343.089844 198.359375 336.210938 188.359375 331.828125 C 193.347656 330.808594 197.953125 330.191406 201.5 331.75 C 202.242188 332.078125 202.96875 332.578125 203.453125 333.191406 L 203.453125 392.691406 C 203.453125 394.300781 202.730469 395.742188 201.28125 396.992188 C 199.828125 398.25 198.160156 399.160156 196.269531 399.730469 L 212.121094 399.730469 C 210.039062 398.917969 208.320312 397.910156 206.96875 396.667969 C 205.621094 395.441406 204.941406 394.109375 204.941406 392.691406 L 204.941406 334.75 C 206.128906 336.21875 207.152344 337.949219 208 339.941406 L 231.378906 398.089844 L 232.089844 399.730469 L 232.300781 399.730469 L 236.710938 389.710938 L 259.660156 333.402344 L 259.660156 392.691406 C 259.660156 394.300781 259.378906 395.621094 258.8125 396.640625 C 258.242188 397.660156 257.21875 398.691406 255.75 399.730469 L 271.75 399.730469 C 270.230469 398.691406 269.203125 397.660156 268.660156 396.640625 "/>
<path fill="#9FAF9F" fill-rule="nonzero" d="M 219.382812 299.035156 C 225.527344 299.035156 231.785156 305.59375 231.785156 311.390625 C 231.785156 305.6875 238.011719 299.035156 244.085938 299.035156 C 238.011719 299.035156 231.730469 292.484375 231.785156 286.949219 C 231.730469 292.484375 225.527344 299.035156 219.382812 299.035156 "/>
</svg>